<svg xmlns="http://www.w3.org/2000/svg" viewBox="0 0 110.4 85.88"><defs><style>.cls-1{fill:#e55d66;}</style></defs><g id="Layer_2" data-name="Layer 2"><path class="cls-1" d="M85.37,12h0A15.87,15.87,0,0,1,101.25,27.9V74.52a0,0,0,0,1,0,0H69.5a0,0,0,0,1,0,0V27.9A15.87,15.87,0,0,1,85.37,12Z" transform="translate(170.75 86.54) rotate(-180)"/><path class="cls-1" d="M24.43,12h0A15.87,15.87,0,0,1,40.3,27.9V74.52a0,0,0,0,1,0,0H8.55a0,0,0,0,1,0,0V27.9A15.87,15.87,0,0,1,24.43,12Z" transform="translate(48.86 86.54) rotate(-180)"/></g></svg>