<svg width="422" height="102" viewBox="0 0 422 102" fill="none" xmlns="http://www.w3.org/2000/svg">
<path d="M15.93 0C20.1549 0 24.2068 1.67833 27.1942 4.66579C30.1817 7.65324 31.86 11.7051 31.86 15.93V101.93H0V15.93C0 13.838 0.412039 11.7666 1.2126 9.83385C2.01315 7.90113 3.18655 6.14502 4.66579 4.66579C6.14502 3.18655 7.90113 2.01315 9.83385 1.2126C11.7666 0.412039 13.838 0 15.93 0V0Z" fill="white"/>
<path d="M80.54 0C82.6319 0 84.7034 0.412039 86.6361 1.2126C88.5688 2.01315 90.325 3.18655 91.8042 4.66579C93.2834 6.14502 94.4568 7.90113 95.2574 9.83385C96.0579 11.7666 96.47 13.838 96.47 15.93V101.93H64.61V15.93C64.61 13.838 65.022 11.7666 65.8226 9.83385C66.6231 7.90113 67.7965 6.14502 69.2758 4.66579C70.755 3.18655 72.5111 2.01315 74.4438 1.2126C76.3765 0.412039 78.448 0 80.54 0V0Z" fill="white"/>
<path d="M145.6 0C147.692 0 149.763 0.412039 151.696 1.2126C153.629 2.01315 155.385 3.18655 156.864 4.66579C158.343 6.14502 159.517 7.90113 160.317 9.83385C161.118 11.7666 161.53 13.838 161.53 15.93V101.93H129.67V15.93C129.67 13.838 130.082 11.7666 130.883 9.83385C131.683 7.90113 132.857 6.14502 134.336 4.66579C135.815 3.18655 137.571 2.01315 139.504 1.2126C141.437 0.412039 143.508 0 145.6 0V0Z" fill="white"/>
<path d="M210.44 0C214.665 0 218.717 1.67833 221.704 4.66579C224.692 7.65324 226.37 11.7051 226.37 15.93V101.93H194.51V15.93C194.51 13.838 194.922 11.7666 195.723 9.83385C196.523 7.90113 197.697 6.14502 199.176 4.66579C200.655 3.18655 202.411 2.01315 204.344 1.2126C206.277 0.412039 208.348 0 210.44 0V0Z" fill="white"/>
<path d="M275.47 0C279.695 0 283.747 1.67833 286.734 4.66579C289.722 7.65324 291.4 11.7051 291.4 15.93V101.93H259.54V15.93C259.54 13.838 259.952 11.7666 260.753 9.83385C261.553 7.90113 262.727 6.14502 264.206 4.66579C265.685 3.18655 267.441 2.01315 269.374 1.2126C271.307 0.412039 273.378 0 275.47 0V0Z" fill="white"/>
<path d="M340.35 0C344.575 0 348.627 1.67833 351.614 4.66579C354.602 7.65324 356.28 11.7051 356.28 15.93V101.93H324.43V15.93C324.43 13.838 324.842 11.7666 325.643 9.83385C326.443 7.90113 327.617 6.14502 329.096 4.66579C330.575 3.18655 332.331 2.01315 334.264 1.2126C336.197 0.412039 338.268 0 340.36 0H340.35Z" fill="white"/>
<path d="M405.24 0C409.465 0 413.517 1.67833 416.504 4.66579C419.492 7.65324 421.17 11.7051 421.17 15.93V101.93H389.31V15.93C389.31 11.7051 390.988 7.65324 393.976 4.66579C396.963 1.67833 401.015 0 405.24 0V0Z" fill="white"/>
</svg>
