<svg xmlns="http://www.w3.org/2000/svg" viewBox="0 0 582.83 391.52"><defs><style>.cls-1{fill:#fff;}</style></defs><g id="Layer_2" data-name="Layer 2"><path class="cls-1" d="M263.05,324q5.61-23.49,11.23-47h6.25l11,28.26,11-28.26h6.36q5.56,23.49,11.14,47h-7.56q-3.87-16.08-7.75-32.15l-10.52,25.25H288.9l-10.35-25.41q-3.87,16.15-7.75,32.31Z"/><path class="cls-1" d="M498.32,323.89q5.63-23.49,11.24-47h6.24q5.52,14.13,11,28.26l11-28.26h6.36q5.58,23.49,11.14,47h-7.55q-3.88-16.08-7.75-32.15L529.51,317h-5.34q-5.17-12.71-10.34-25.41-3.89,16.16-7.76,32.31Z"/><path class="cls-1" d="M276.57,213.28c0-13.66,11-24.43,24.95-24.44a23.79,23.79,0,0,1,24,24c0,14-10.92,25.05-24.71,25A24.46,24.46,0,0,1,276.57,213.28Zm24.22,17.32c9.7,0,17.1-7.3,17-16.68-.08-9.72-7.48-17.35-16.8-17.34-9.49,0-16.72,7.67-16.71,17.66A16.37,16.37,0,0,0,300.79,230.6Z"/><path class="cls-1" d="M422.78,195l-4.67,5.68c-10.86-6.23-19-6.25-25.31-.18-5.37,5.19-6.71,14.16-3.14,21s11.33,10.23,19.59,8.54a14.23,14.23,0,0,0,11.32-12.64H406.35V210.9h21.84a24.08,24.08,0,0,1-1.77,13.34c-4.56,10.35-15.62,15.49-27.92,13A23.36,23.36,0,0,1,380,214.93c-.25-12.84,6.18-22.31,17.52-25.2a28.3,28.3,0,0,1,23.25,3.75C421.43,193.89,422,194.41,422.78,195Z"/><path class="cls-1" d="M75.66,195.1,71,200.8A21.57,21.57,0,0,0,57.7,196c-9.47,0-16.74,6.86-17,16.16-.28,10.27,6.24,17.74,16,18.31,9.11.54,16-4.58,16.9-13H59.34v-6.72H81c2.61,9.5-3.53,21-13.35,25.2-11.46,4.94-25,.86-31.21-9.45s-4-24.65,5.29-32.23S66.85,187.07,75.66,195.1Z"/><path class="cls-1" d="M232.76,236.64V190.09c7.14,0,14.17-.31,21.16.11,4.81.29,8.6,2.87,9.89,7.92,1.41,5.51-.22,9.16-5.44,12.85.09.13.16.32.29.37,7.46,3,8.6,8.2,7.79,14.14a13.07,13.07,0,0,1-11.64,11.05C247.55,237,240.24,236.64,232.76,236.64ZM240,215.39v14.67c4.29,0,8.37.2,12.43-.06a7.33,7.33,0,0,0,6.61-7.48c0-3.84-2.24-6.75-6.22-7.05C248.58,215.14,244.32,215.39,240,215.39Zm.11-19.38v12.54c3.73,0,7.3.28,10.81-.07a5.84,5.84,0,0,0,5.59-6.37c-.13-3.51-2.44-5.88-6.23-6.07C247,195.88,243.64,196,240.08,196Z"/><path class="cls-1" d="M138.67,277.11l7.17,0,21.43,34.4V277.31h7.07V324h-7.22l-21.22-34.31L145.8,324h-7.14Z"/><path class="cls-1" d="M80.47,300.5c0-13.13,10.71-24.37,23.3-24.41s23.66,11.41,23.58,24.5-11,24.28-23.54,24.3S80.48,313.65,80.47,300.5Zm7.06-.2c0,9.3,7.46,17.29,16.29,17.34,8.67.05,16.36-7.9,16.43-17,.07-9.3-7.66-17.38-16.61-17.35C95.1,283.34,87.58,291.27,87.53,300.3Z"/><path class="cls-1" d="M338.61,190.52c6.56,0,13-.45,19.38.12,6.08.55,10.45,6,11,12.22a13.27,13.27,0,0,1-8.58,13.81c-.56.21-1.12.38-2.18.75l13.92,19.44h-9q-6.47-9.3-12.94-18.61l-4.55,0v18.86h-7Zm7.48,20.69c1.76,0,4.05,0,6.85-.05a15,15,0,0,0,3.34-.41,6,6,0,0,0,5-5.83c.34-4.14-1.64-7.1-5.74-7.61-3.14-.4-6.37,0-9.56,0Q346,204.26,346.09,211.21Z"/><path class="cls-1" d="M91.93,213.39c0-13.19,10.91-24.62,23.46-24.54s23.34,11.43,23.41,24.43-11,24.6-23.55,24.52S91.94,226.46,91.93,213.39Zm6.72,0c0,9.93,6.95,17.27,16.36,17.26,9.94,0,17-7.12,17-17.21s-7-17.4-16.85-17.37C105.56,196,98.65,203.27,98.65,213.34Z"/><path class="cls-1" d="M76.93,324H66.42l-21-22.79L45.39,324H38.23l0-46.62h7.07l.14,20,18.45-20.23,9.78,0c-7,7.39-13.52,14.3-20.32,21.48Z"/><path class="cls-1" d="M191.88,190.28H218.5v6.52H198.78c0,3.89,0,7.77,0,11.66l18.13,0v6.63L198.82,215l-.08,15.29H219v6.58H191.88Z"/><path class="cls-1" d="M415.63,277.32h26.61v6.52H422.53l0,11.66,18.14,0v6.63l-18.14-.09-.08,15.29H442.7v6.58H415.63Z"/><path class="cls-1" d="M185.41,320.72l3.21-6.75a27.71,27.71,0,0,0,9.8,3.42c3.5.5,5.15,0,6.25-.57a5.79,5.79,0,0,0,3-3.11,5.38,5.38,0,0,0-.12-3.41c-.75-2.37-2.38-3.88-5.57-6.36-3.81-2.95-4.35-3-7.75-5.76a14.7,14.7,0,0,1-5-6.47,11.82,11.82,0,0,1,.32-9.21c2.15-4.21,6.81-5.64,8.67-6a24.7,24.7,0,0,1,15.66,2.81l-3.09,6.37a15.66,15.66,0,0,0-5.68-2.07c-1.32-.2-6.54-1-8.14,1.58a3.88,3.88,0,0,0-.43,2.55,6.62,6.62,0,0,0,2.75,4.1c4.62,3.84,6.85,5,9.85,7.62a17.85,17.85,0,0,1,4.64,5.32,15,15,0,0,1,1.7,5.88,13.18,13.18,0,0,1-2.09,8.69,12.65,12.65,0,0,1-6.53,4.55C197.53,327.07,187.5,321.89,185.41,320.72Z"/><path class="cls-1" d="M374.68,320.72l3.21-6.75a27.71,27.71,0,0,0,9.8,3.42c3.5.5,5.15,0,6.25-.57a5.79,5.79,0,0,0,3-3.11,5.38,5.38,0,0,0-.12-3.41c-.75-2.37-2.38-3.88-5.57-6.36-3.81-2.95-4.35-3-7.76-5.76a14.77,14.77,0,0,1-5.05-6.47,11.91,11.91,0,0,1,.32-9.21c2.16-4.21,6.82-5.64,8.67-6a24.73,24.73,0,0,1,15.67,2.81L400,285.7a15.73,15.73,0,0,0-5.68-2.07c-1.32-.2-6.54-1-8.15,1.58a3.92,3.92,0,0,0-.42,2.55,6.65,6.65,0,0,0,2.74,4.1c4.62,3.84,6.85,5,9.86,7.62A18,18,0,0,1,403,304.8a15,15,0,0,1,1.7,5.88,13.18,13.18,0,0,1-2.09,8.69,12.69,12.69,0,0,1-6.53,4.55C386.8,327.07,376.76,321.89,374.68,320.72Z"/><path class="cls-1" d="M436.68,233.58l3.21-6.77a27.36,27.36,0,0,0,9.8,3.43c3.5.51,5.15,0,6.25-.56a5.85,5.85,0,0,0,3-3.13,5.4,5.4,0,0,0-.12-3.42c-.75-2.37-2.38-3.89-5.57-6.37-3.81-3-4.35-3-7.75-5.78a14.72,14.72,0,0,1-5.05-6.49,11.87,11.87,0,0,1,.32-9.23c2.15-4.22,6.81-5.66,8.67-6a24.72,24.72,0,0,1,15.66,2.81L462,198.46a15.66,15.66,0,0,0-5.68-2.07c-1.32-.21-6.54-1-8.14,1.58a3.9,3.9,0,0,0-.43,2.56,6.67,6.67,0,0,0,2.75,4.12c4.62,3.84,6.85,5,9.85,7.64a17.85,17.85,0,0,1,4.64,5.32,15.16,15.16,0,0,1,1.7,5.91,13.25,13.25,0,0,1-2.09,8.71,12.62,12.62,0,0,1-6.53,4.56C448.8,240,438.77,234.75,436.68,233.58Z"/><path class="cls-1" d="M244.21,323.84h-7.09q0-20.14,0-40.29H224v-6.63h33v6.44H244.2Q244.2,303.6,244.21,323.84Z"/><path class="cls-1" d="M167.39,236.94H160.3q0-20.06,0-40.09H147.21v-6.6h33v6.41H167.39Z"/><path class="cls-1" d="M128.16,184a4,4,0,0,1-4.25-4,4.13,4.13,0,1,1,8.25-.24A4,4,0,0,1,128.16,184Z"/><path class="cls-1" d="M102.49,175.75a4,4,0,0,1,4.14,4.09,4,4,0,0,1-4,4.16,4.17,4.17,0,0,1-4.23-4.06A4.24,4.24,0,0,1,102.49,175.75Z"/><path class="cls-1" d="M53.26,44.74h0A15.93,15.93,0,0,1,69.19,60.67v86a0,0,0,0,1,0,0H37.33a0,0,0,0,1,0,0v-86A15.93,15.93,0,0,1,53.26,44.74Z"/><path class="cls-1" d="M117.87,44.74h0a15.93,15.93,0,0,1,15.93,15.93v86a0,0,0,0,1,0,0H101.94a0,0,0,0,1,0,0v-86A15.93,15.93,0,0,1,117.87,44.74Z"/><path class="cls-1" d="M182.93,44.74h0a15.93,15.93,0,0,1,15.93,15.93v86a0,0,0,0,1,0,0H167a0,0,0,0,1,0,0v-86A15.93,15.93,0,0,1,182.93,44.74Z"/><path class="cls-1" d="M247.77,44.74h0A15.93,15.93,0,0,1,263.7,60.67v86a0,0,0,0,1,0,0H231.84a0,0,0,0,1,0,0v-86A15.93,15.93,0,0,1,247.77,44.74Z"/><path class="cls-1" d="M312.8,44.74h0a15.93,15.93,0,0,1,15.93,15.93v86a0,0,0,0,1,0,0H296.87a0,0,0,0,1,0,0v-86A15.93,15.93,0,0,1,312.8,44.74Z"/><path class="cls-1" d="M377.68,44.74h0a15.93,15.93,0,0,1,15.93,15.93v86a0,0,0,0,1,0,0H361.76a0,0,0,0,1,0,0v-86a15.93,15.93,0,0,1,15.93-15.93Z"/><path class="cls-1" d="M442.57,44.74h0a15.93,15.93,0,0,1,15.93,15.93v86a0,0,0,0,1,0,0H426.64a0,0,0,0,1,0,0v-86a15.93,15.93,0,0,1,15.93-15.93Z"/><path class="cls-1" d="M346.92,324.92c-10.53,0-19.09-8.93-19.09-19.9V277h7.84v28c0,6.7,5.05,12.15,11.25,12.15s11.25-5.45,11.25-12.15V277H366v28C366,316,357.45,324.92,346.92,324.92Z"/><path class="cls-1" d="M472.52,324.92c-10.53,0-19.1-8.93-19.1-19.9V277h7.85v28c0,6.7,5,12.15,11.25,12.15s11.25-5.45,11.25-12.15V277h7.84v28C491.61,316,483,324.92,472.52,324.92Z"/></g></svg>